# File created by Blade
# Date/Time:  Tue Jan 27 18:55:50 2015
# Frame Rate: 120.000 fps
#------------------------------------------------------
:FULLY-SPECIFIED
:DEGREES
2932
root -1.057668 32.890560 -7.043682 36.024811 -27.885766 -30.813608
Spine 4.844538 19.394186 3.587778
Head -14.523457 20.666547 1.101869
LeftShoulder -19.632131 21.998354 14.979927
LeftArm -20.368532 -52.114749 -65.075245
LeftForeArm -20.364005 -0.000000 112.814662
LeftHand -12.795913 -0.000000 45.786174
LeftHandThumb1 -26.253704 0.000000 33.147579
RightShoulder 6.049653 19.231122 -3.895769
RightArm 38.740317 -53.610925 70.073087
RightForeArm -28.357550 -0.000000 34.090983
RightHand -14.245450 -0.000000 7.692282
RightHandThumb1 -24.326973 -0.000000 -32.862282
LeftUpLeg -34.442072 28.245852 7.213309
LeftLeg 23.251973 -0.000000 -0.000000
LeftFoot -38.981536 33.616268 -34.127919
LeftToeBase 9.024043 -0.000000 -0.000000
RightUpLeg -28.001552 -66.154179 4.257709
RightLeg 90.530335 -0.000000 -0.000000
RightFoot -24.279951 -1.694979 37.994495
RightToeBase 9.805146 -0.000000 -0.000000
2933
root -1.044861 32.911615 -7.055655 36.241123 -28.171738 -31.018799
Spine 4.923506 19.367512 3.655506
Head -14.258850 20.944195 1.008467
LeftShoulder -19.527133 22.205381 14.898273
LeftArm -19.912337 -52.122804 -65.343908
LeftForeArm -20.324807 -0.000000 112.835297
LeftHand -12.490009 -0.000000 45.476743
LeftHandThumb1 -26.253704 0.000000 33.147579
RightShoulder 6.036057 19.257549 -3.940414
RightArm 39.443180 -53.925954 69.291090
RightForeArm -28.042144 -0.000000 34.279679
RightHand -14.343481 -0.000000 7.402659
RightHandThumb1 -24.326973 -0.000000 -32.862282
LeftUpLeg -34.304667 28.310939 7.314079
LeftLeg 22.992983 -0.000000 -0.000000
LeftFoot -38.977267 33.780894 -34.253279
LeftToeBase 8.924821 -0.000000 -0.000000
RightUpLeg -27.622639 -66.413169 3.726864
RightLeg 90.727133 -0.000000 -0.000000
RightFoot -24.213477 -1.675725 37.971990
RightToeBase 9.636658 -0.000000 -0.000000
2934
root -1.036751 32.929601 -7.063702 36.474984 -28.434906 -31.202151
Spine 4.948061 19.245200 3.695509
Head -13.997369 21.248122 0.897850
LeftShoulder -19.457839 22.173109 14.899282
LeftArm -19.875552 -52.154718 -65.254870
LeftForeArm -20.331139 -0.000000 112.727716
LeftHand -12.217777 0.000000 45.329297
LeftHandThumb1 -26.253704 0.000000 33.147579
RightShoulder 6.047731 19.350047 -3.969130
RightArm 39.803647 -54.123405 68.982589
RightForeArm -27.927900 -0.000000 34.352416
RightHand -14.418350 -0.000000 7.187564
RightHandThumb1 -24.326973 -0.000000 -32.862282
LeftUpLeg -34.178855 28.276684 7.438643
LeftLeg 22.754503 -0.000000 -0.000000
LeftFoot -38.963887 34.006795 -34.312559
LeftToeBase 8.843721 -0.000000 -0.000000
RightUpLeg -27.256951 -66.697878 3.210474
RightLeg 90.951915 -0.000000 -0.000000
RightFoot -24.168905 -1.756214 37.884693
RightToeBase 9.525737 -0.000000 -0.000000
2935
root -1.023121 32.941876 -7.070924 36.663706 -28.740995 -31.330003
Spine 4.977897 19.116990 3.680807
Head -13.650460 21.566750 0.797579
LeftShoulder -19.325644 22.102754 14.939273
LeftArm -20.027588 -52.190647 -65.012165
LeftForeArm -20.423984 0.000000 112.595288
LeftHand -12.056583 -0.000000 45.359092
LeftHandThumb1 -26.253704 0.000000 33.147579
RightShoulder 6.173312 19.437320 -4.001817
RightArm 39.474438 -53.821465 69.613511
RightForeArm -28.344165 -0.000000 34.191072
RightHand -14.149605 -0.000000 7.768774
RightHandThumb1 -24.326973 -0.000000 -32.862282
LeftUpLeg -34.014214 28.184720 7.542869
LeftLeg 22.551977 -0.000000 -0.000000
LeftFoot -38.936613 34.161238 -34.341623
LeftToeBase 8.790048 -0.000000 -0.000000
RightUpLeg -26.835175 -66.946334 2.567399
RightLeg 91.247049 -0.000000 -0.000000
RightFoot -24.158420 -1.742839 37.952497
RightToeBase 9.457634 -0.000000 -0.000000
